<?xml version="1.0" encoding="utf-8"?><svg xmlns="http://www.w3.org/2000/svg" xmlns:xlink="http://www.w3.org/1999/xlink"><symbol fill="none" viewBox="0 0 31.914 61" id="left" xmlns="http://www.w3.org/2000/svg"><path d="M.67 32.17L28 60.31c.9.92 2.35.92 3.24-.01.89-.92.89-2.42-.01-3.34L5.53 30.49 31.24 4.03c.89-.92.89-2.42 0-3.34C30.79.23 30.2 0 29.62 0c-.59 0-1.17.23-1.62.69L.67 28.82c-.43.44-.67 1.05-.67 1.67 0 .63.24 1.24.67 1.68z" fill="#FFF"/></symbol><symbol fill="none" viewBox="0 0 31.914 61" id="right" xmlns="http://www.w3.org/2000/svg"><path d="M31.24 28.82L3.9.68C3.01-.24 1.56-.23.66.69c-.89.92-.89 2.42.01 3.34l25.7 26.47L.67 56.96c-.9.92-.9 2.42-.01 3.34.45.46 1.04.7 1.63.7.58 0 1.17-.24 1.61-.7l27.34-28.13c.43-.44.67-1.05.67-1.67 0-.63-.24-1.24-.67-1.68z" fill="#FFF"/></symbol></svg>