<?xml version="1.0" encoding="utf-8"?><svg xmlns="http://www.w3.org/2000/svg" xmlns:xlink="http://www.w3.org/1999/xlink"><symbol fill="none" viewBox="0 0 10 10" id="answer" xmlns="http://www.w3.org/2000/svg"><path d="M.27 0C.12 0 0 .12 0 .27v5.84c0 .61.49 1.11 1.11 1.11h7.04L6.23 9.13a.28.28 0 000 .39l.39.39a.266.266 0 00.4 0l2.85-2.85a.41.41 0 00.13-.29v-.21a.482.482 0 00-.13-.3L7.02 3.41a.297.297 0 00-.2-.08c-.07 0-.15.03-.2.08l-.39.4c-.05.05-.08.12-.08.19s.03.14.08.2l1.92 1.91H1.11V.27C1.11.12.98 0 .83 0H.27z" fill="#4295E4"/><path d="M0 .27v5.84c0 .61.49 1.11 1.11 1.11h7.04L6.23 9.13a.28.28 0 000 .39l.39.39a.266.266 0 00.4 0l2.85-2.85a.41.41 0 00.13-.29v-.21a.482.482 0 00-.13-.3L7.02 3.41a.297.297 0 00-.2-.08c-.07 0-.15.03-.2.08l-.39.4c-.05.05-.08.12-.08.19s.03.14.08.2l1.92 1.91H1.11V.27C1.11.12.98 0 .83 0H.27C.12 0 0 .12 0 .27z"/></symbol><symbol fill="none" viewBox="0 0 12.173 6.836" id="down" xmlns="http://www.w3.org/2000/svg"><path d="M11.41.75L6.08 6.08.75.75" stroke="#161C24" stroke-width="1.5" stroke-linejoin="round" stroke-linecap="round"/></symbol><symbol fill="none" viewBox="0 0 24 24" id="trash" xmlns="http://www.w3.org/2000/svg"><defs><clipPath id="ca"><rect rx="-.5" width="23" height="23" transform="translate(.5 .5)" fill="#fff" fill-opacity="0"/></clipPath></defs><rect rx="-.5" width="23" height="23" transform="translate(.5 .5)" fill="none"/><g clip-path="url(#ca)" stroke="#4295E4" stroke-width="1.5" stroke-linejoin="round"><path d="M20 6l-1.59 14.21A1.987 1.987 0 0116.43 22H7.56a1.987 1.987 0 01-1.98-1.79L4 6h16zM8.08 2.31C8.4 2.1 8.77 2 9.15 2h5.69c.38-.01.75.1 1.07.31.32.2.58.49.74.83L18 6H6l1.34-2.86c.16-.34.42-.63.74-.83z"/><path d="M2 6h20M10 11v5M14 11v5" stroke-linecap="round"/></g></symbol></svg>